# xmcd
#
# Track frame offsets:
#	150
#	21120
#	40325
#	54922
#	69630
#	95374
#
# Disc length: 1279 seconds
#
# Revision: 0
# Processed by: cddbd v1.5.1PL0 Copyright (c) Steve Scherf et al.
# Submitted via: audiograbber 1.83.01
#
DISCID=4604fd06
DTITLE=Μανώλης Λιδάκης - Γιά να σε συναντήσω
DYEAR=2003
DGENRE=Rock
TTITLE0=Σ'έχω δεν σ' έχω
TTITLE1=Γιά να σ συναντήσω
TTITLE2=Αδυναμία μου μεγάλη
TTITLE3=Όπου και να 'σαι
TTITLE4=Θά σ'αγαπήσω γιά πάρτη μου
TTITLE5=bonus trk
EXTD=
EXTT0=
EXTT1=
EXTT2=
EXTT3=
EXTT4=
EXTT5=
PLAYORDER=
